# AST/ASF file generated using VICON BodyLanguage
# -----------------------------------------------
:version 1.10
:name VICON
:units
  mass 1.0
  length 0.45
  angle deg
:documentation
   .ast/.asf automatically generated from VICON data using
   VICON BodyBuilder and BodyLanguage model FoxedUp or BRILLIANT.MOD
:root
   order TX TY TZ RX RY RZ
   axis XYZ
   position 0 0 0  
   orientation 0 -0 0 
:bonedata
  begin
     id 1 
     name lhipjoint
     direction 0.500677 -0.737119 0.453848 
     length 2.34727 
     axis 0 -0 0  XYZ
  end
  begin
     id 2 
     name lfemur
     direction 0.34202 -0.939693 0  
     length 7.53653  
     axis 0 -0 20  XYZ
    dof rx ry rz
    limits (-160.0 20.0)
           (-70.0 70.0)
           (-60.0 70.0)
  end
  begin
     id 3 
     name ltibia
     direction 0.34202 -0.939693 0   
     length 6.85572   
     axis 0 -0 20   XYZ
    dof rx
    limits (-10.0 170.0)
  end
  begin
     id 4 
     name lfoot
     direction 0.155313 -0.426718 0.890949   
     length 2.18324   
     axis -90 -1.13533e-015 20   XYZ
    dof rx rz
    limits (-45.0 90.0)
           (-70.0 20.0)
  end
  begin
     id 5 
     name ltoes
     direction 1.53474e-011 -4.21647e-011 1   
     length 1.06748   
     axis -90 -1.13533e-015 20   XYZ
    dof rx
    limits (-90.0 20.0)
  end
  begin
     id 6 
     name rhipjoint
     direction -0.632471 -0.659587 0.406111   
     length 2.62319  
     axis 0 -0 0  XYZ 
  end
  begin
     id 7 
     name rfemur
     direction -0.34202 -0.939693 0   
     length 7.21735   
     axis 0 -0 -20   XYZ
    dof rx ry rz
    limits (-160.0 20.0)
           (-70.0 70.0)
           (-70.0 60.0)
  end
  begin
     id 8 
     name rtibia
     direction -0.34202 -0.939693 0   
     length 7.02558   
     axis 0 -0 -20   XYZ
    dof rx
    limits (-10.0 170.0)
 end
 begin
     id 9 
     name rfoot
     direction -0.16057 -0.441164 0.882945   
     length 2.10014  
     axis -90 1.13533e-015 -20   XYZ
    dof rx rz
    limits (-45.0 90.0)
           (-20.0 70.0)
  end
  begin
     id 10 
     name rtoes
     direction -1.53553e-011 -4.2192e-011 1   
     length 1.02554   
     axis -90 1.13533e-015 -20   XYZ
    dof rx
    limits (-90.0 20.0)
  end
  begin
     id 11 
     name lowerback
     direction 0.0401429 0.998861 -0.0258085   
     length 1.80848   
     axis 0 -0 0   XYZ
    dof rx ry rz
    limits (-20.0 45.0)
           (-30.0 30.0)
           (-30.0 30.0)
  end
  begin
     id 12 
     name upperback
     direction -0.0130978 0.999914 -0.000352645   
     length 1.8116   
     axis 0 -0 0   XYZ
    dof rx ry rz
    limits (-20.0 45.0)
           (-30.0 30.0)
           (-30.0 30.0)
  end
  begin
     id 13 
     name thorax
     direction -0.0300198 0.999453 0.0138573   
     length 1.81778   
     axis 0 -0 0   XYZ
    dof rx ry rz
    limits (-20.0 45.0)
           (-30.0 30.0)
           (-30.0 30.0)
  end
  begin
     id 14 
     name lowerneck
     direction -0.0401726 0.999191 -0.00173647   
     length 2.10594   
     axis 0 -0 0   XYZ
    dof rx ry rz
    limits (-20.0 45.0)
           (-30.0 30.0)
           (-30.0 30.0)
  end
  begin
     id 15 
     name upperneck
     direction 0.0119835 0.998501 0.0534085   
     length 2.07325   
     axis 0 -0 0   XYZ
    dof rx ry rz
    limits (-20.0 45.0)
           (-30.0 30.0)
           (-30.0 30.0)
  end
  begin
     id 16
     name head
     direction 0.00628309 0.999826 0.0175921  
     length 2.15096  
     axis 0 -0 0   XYZ
    dof rx ry rz
    limits (-20.0 45.0)
           (-30.0 30.0)
           (-30.0 30.0)
  end
  begin
     id 17 
     name lclavicle
     direction 0.895501 0.429681 -0.115981  
     length 4.18092  
     axis 0 -0 0   XYZ
    dof ry rz
    limits (-20.0 10.0)
           (0.0 20.0)
  end
  begin
     id 18 
     name lhumerus
     direction 1 -4.48961e-011 -3.38433e-028   
     length 5.77237   
     axis 180 -30 -90   XYZ
    dof rx ry rz
    limits (-60.0 90.0)
           (-90.0 90.0)
           (-90.0 90.0)
  end
  begin
     id 19
     name lradius
     direction 1 -4.4901e-011 1.11983e-026   
     length 2.91878   
     axis 180 -30 -90   XYZ
    dof rx
    limits (-10.0 170.0)
  end
  begin
     id 20
     name lwrist
     direction 1 -4.48934e-011 1.88176e-026   
     length 1.45939   
     axis -1.23311e-014 90 90   XYZ
    dof ry
    limits (-180.0 0.0)
 end
  begin
     id 21 
     name lhand
     direction 1 -4.4895e-011 3.76352e-026   
     length 1.06566   
     axis -2.40147e-014 90 90   XYZ
    dof rx rz
    limits (-90.0 90.0)
           (-45.0 45.0)
  end
  begin
     id 22 
     name lfingers
     direction 1 -4.49005e-011 7.52705e-026   
     length 0.859162   
     axis -4.80295e-014 90 90   XYZ
    dof rx
    limits (0.0 90.0)
  end
  begin
     id 23
     name lthumb
     direction 0.707107 -6.34885e-011 0.707107   
     length 1.23359   
     axis -90 45 -9.86935e-015   XYZ
    dof rx rz
    limits (-45.0 45.0)
           (-45.0 45.0)
  end
  begin
     id 24 
     name rclavicle
     direction -0.91006 0.40451 -0.0903492   
     length 4.23293  
     axis 0 -0 0   XYZ 
    dof ry rz
    limits (-10.0 20.0)
           (-20.0 0.0)
  end
  begin
     id 25 
     name rhumerus
     direction -1 -4.4897e-011 1.7415e-027  
     length 5.49854   
     axis 180 30 90   XYZ
    dof rx ry rz
    limits (-90.0 60.0)
           (-90.0 90.0)
           (-90.0 90.0)
  end
  begin
     id 26 
     name rradius
     direction -1 -4.48963e-011 1.21259e-026   
     length 3.1186   
     axis 180 30 90   XYZ
    dof rx
    limits (-10.0 170.0)
  end
  begin
     id 27 
     name rwrist
     direction -1 -4.48967e-011 1.88176e-026   
     length 1.5593   
     axis -1.23311e-014 -90 -90   XYZ
    dof ry
    limits (-180.0 0.0)
  end
  begin
     id 28
     name rhand
     direction -1 -4.4895e-011 3.76352e-026   
     length 0.71207   
     axis -2.40147e-014 -90 -90   XYZ
    dof rx rz
    limits (-90.0 90.0)
           (-45.0 45.0)
  end
  begin
     id 29
     name rfingers
     direction -1 -4.49005e-011 7.52705e-026   
     length 0.574089   
     axis -4.80295e-014 -90 -90   XYZ
    dof rx
    limits (0.0 90.0)
  end
  begin
     id 30
     name rthumb
     direction -0.707107 -6.34982e-011 0.707107   
     length 0.824281   
     axis -90 -45 9.86935e-015   XYZ
    dof rx rz
    limits (-45.0 45.0)
           (-45.0 45.0)
  end
:hierarchy
  begin
    root lhipjoint rhipjoint lowerback
    lhipjoint lfemur
    lfemur ltibia
    ltibia lfoot
    lfoot ltoes
    rhipjoint rfemur
    rfemur rtibia
    rtibia rfoot
    rfoot rtoes
    lowerback upperback
    upperback thorax
    thorax lowerneck lclavicle rclavicle
    lowerneck upperneck
    upperneck head
    lclavicle lhumerus
    lhumerus lradius
    lradius lwrist
    lwrist lhand lthumb
    lhand lfingers
    rclavicle rhumerus
    rhumerus rradius
    rradius rwrist
    rwrist rhand rthumb
    rhand rfingers
  end

#!OML:ASF C:\ViconDB\ViconDB\414\Spring2016\042216\male.ASF
:FULLY-SPECIFIED
:DEGREES
257
root -14.1771 17.5026 6.76327 -149.957 77.1339 208.573
lowerback -2.23508 0.732081 9.50476
upperback -1.86707 0.848787 -1.61685
thorax -0.533258 0.334433 -7.0265
lowerneck -4.36539 0.0375443 -6.55704
upperneck -5.6098 0.524681 3.74881
head -1.04766 0.41084 2.32094
rclavicle 2.83268e-015 8.74653e-015
rhumerus -25.5572 11.98 -102.614
rradius 30.8251
rwrist 26.1518
rhand 12.8832 -20.2889
rfingers 7.12502
rthumb 37.8555 -46.1273
lclavicle 2.83268e-015 8.74653e-015
lhumerus -47.987 28.0476 68.2495
lradius 30.5584
lwrist -16.3342
lhand -8.56442 16.4462
lfingers 7.12502
lthumb 17.3657 45.6904
rfemur 16.3133 1.296 25.1804
rtibia 13.9216
rfoot 3.31246 -15.0696
rtoes -28.1477
lfemur -15.4117 -6.59501 -11.3021
ltibia 27.2551
lfoot -19.6503 9.90483
ltoes -12.6098
258
root -14.0812 17.5083 6.73393 -148.353 77.2857 210.11
lowerback -2.26256 0.789411 9.54222
upperback -1.86645 0.921628 -1.65708
thorax -0.502252 0.371933 -7.08867
lowerneck -4.37224 0.0209253 -6.59239
upperneck -5.66194 0.504993 3.71308
head -1.06206 0.403261 2.31561
rclavicle 6.21202e-015 -1.51076e-014
rhumerus -25.4854 12.7358 -103.054
rradius 31.7667
rwrist 24.6888
rhand 12.3108 -20.2108
rfingers 7.12502
rthumb 37.3146 -46.1933
lclavicle 6.21202e-015 -1.51076e-014
lhumerus -47.6646 27.8663 68.5054
lradius 30.8887
lwrist -16.3679
lhand -8.75915 16.3939
lfingers 7.12502
lthumb 17.1783 45.6546
rfemur 15.512 1.30258 25.2966
rtibia 15.5296
rfoot 4.01126 -14.9811
rtoes -28.0734
lfemur -15.0723 -6.31442 -11.1175
ltibia 27.2462
lfoot -20.0056 9.98274
ltoes -12.583
259
root -13.9875 17.511 6.70771 -147.109 77.4242 211.263
lowerback -2.27057 0.821946 9.47062
upperback -1.90691 0.967633 -1.65842
thorax -0.531937 0.392862 -7.0482
lowerneck -4.1726 0.0327598 -6.95382
upperneck -5.8317 0.529843 3.92474
head -1.15596 0.421894 2.45428
rclavicle -9.24349e-015 -2.38542e-015
rhumerus -25.4871 13.3894 -103.344
rradius 32.6576
rwrist 23.5568
rhand 12.2926 -19.8898
rfingers 7.12502
rthumb 37.2975 -45.8768
lclavicle -9.24349e-015 -2.38542e-015
lhumerus -47.285 27.7635 68.7883
lradius 30.9921
lwrist -16.1012
lhand -9.00479 16.5886
lfingers 7.12502
lthumb 16.9418 45.8697
rfemur 14.683 1.30559 25.3672
rtibia 17.1566
rfoot 4.61958 -15.0235
rtoes -27.4135
lfemur -14.8041 -5.69765 -11.0279
ltibia 27.2686
lfoot -20.4001 9.68895
ltoes -12.3976
260
root -13.8979 17.5135 6.68191 -146.155 77.5213 212.196
lowerback -2.16673 0.817601 9.4828
upperback -1.9197 0.971804 -1.77794
thorax -0.601027 0.389918 -7.18391
lowerneck -4.04749 0.0265605 -6.9912
upperneck -5.96083 0.519447 3.9915
head -1.21912 0.417797 2.48437
rclavicle 2.26615e-014 3.26007e-014
rhumerus -25.393 13.6273 -103.717
rradius 33.4286
rwrist 22.7168
rhand 12.2409 -19.5827
rfingers 7.12502
rthumb 37.2485 -45.5825
lclavicle 2.26615e-014 3.26007e-014
lhumerus -46.8793 27.4872 68.9787
lradius 31.2343
lwrist -16.0533
lhand -9.03128 16.4144
lfingers 7.12502
lthumb 16.9163 45.6977
rfemur 13.9594 1.44734 25.4574
rtibia 18.7558
rfoot 5.20318 -15.14
rtoes -26.539
lfemur -14.468 -5.41402 -10.9587
ltibia 27.2844
lfoot -20.7527 9.66506
ltoes -12.3358
261
root -13.808 17.5167 6.6608 -144.511 77.6659 213.822
lowerback -2.02947 0.867855 9.47454
upperback -1.96102 1.0544 -1.79407
thorax -0.70528 0.42439 -7.19682
lowerneck -3.87312 0.00914821 -7.08201
upperneck -6.10979 0.488234 3.95899
head -1.29592 0.405198 2.49124
rclavicle -1.98785e-016 1.74931e-014
rhumerus -25.3517 13.9271 -104.016
rradius 34.1176
rwrist 21.9536
rhand 12.0063 -19.5629
rfingers 7.12502
rthumb 37.0267 -45.6204
lclavicle -1.98785e-016 1.74931e-014
lhumerus -46.4935 27.3947 69.1743
lradius 31.3246
lwrist -15.8931
lhand -9.24476 16.4247
lfingers 7.12502
lthumb 16.7108 45.7255
rfemur 13.1405 1.72455 25.7069
rtibia 20.455
rfoot 5.76149 -15.29
rtoes -25.7799
lfemur -14.1194 -4.73217 -10.7717
ltibia 27.2677
lfoot -21.1383 9.366
ltoes -12.3452
